<?xml version="1.0" encoding="utf-8"?>
<!-- Generator: Adobe Illustrator 16.0.0, SVG Export Plug-In . SVG Version: 6.00 Build 0)  -->
<!DOCTYPE svg PUBLIC "-//W3C//DTD SVG 1.1//EN" "http://www.w3.org/Graphics/SVG/1.1/DTD/svg11.dtd">
<svg version="1.1" id="Layer_1" xmlns="http://www.w3.org/2000/svg" xmlns:xlink="http://www.w3.org/1999/xlink" x="0px" y="0px"
	 width="595.28px" height="595.28px" viewBox="0 0 595.28 595.28" enable-background="new 0 0 595.28 595.28" xml:space="preserve">
<path fill="#0B723B" d="M580.716,518.363c0,33.422-27.176,60.52-60.695,60.52H76.635c-33.519,0-60.701-27.098-60.701-60.52V76.234
	c0-33.422,27.182-60.521,60.701-60.521h443.385c33.52,0,60.695,27.098,60.695,60.521V518.363z"/>
<g>
	<path fill="#FFFFFF" d="M143.257,133.298c0,20.36-16.511,36.872-36.884,36.872c-20.367,0-36.878-16.511-36.878-36.872
		c0-20.374,16.511-36.885,36.878-36.885C126.746,96.414,143.257,112.924,143.257,133.298z"/>
	<path fill="#FFFFFF" d="M527.152,133.298c0,20.36-16.511,36.872-36.878,36.872s-36.878-16.511-36.878-36.872
		c0-20.374,16.511-36.885,36.878-36.885S527.152,112.924,527.152,133.298z"/>
	<path fill="#FFFFFF" d="M527.152,461.292c0,20.374-16.511,36.885-36.878,36.885s-36.878-16.511-36.878-36.885
		c0-20.36,16.511-36.885,36.878-36.885S527.152,440.932,527.152,461.292z"/>
	<path fill="#FFFFFF" d="M138.444,399.719c0,17.713-14.36,32.065-32.072,32.065c-17.706,0-32.066-14.353-32.066-32.065
		c0-17.712,14.36-32.065,32.066-32.065C124.084,367.653,138.444,382.007,138.444,399.719z"/>
	<path fill="#FFFFFF" d="M222.458,242.427c0,12.673-10.265,22.932-22.925,22.932c-12.661,0-22.925-10.258-22.925-22.932
		c0-12.648,10.264-22.925,22.925-22.925C212.194,219.502,222.458,229.779,222.458,242.427z"/>
	<rect x="103.543" y="122.291" fill="#FFFFFF" width="397.79" height="21.995"/>
	<polygon fill="#FFFFFF" points="507.379,134.539 98.938,420.906 86.309,402.897 494.738,116.516 	"/>
	<polygon fill="#FFFFFF" points="490.139,478.798 193.933,253.622 207.252,236.109 503.452,461.292 	"/>
</g>
</svg>
