<?xml version="1.0" encoding="utf-8"?>
<!-- Generator: Adobe Illustrator 16.0.0, SVG Export Plug-In . SVG Version: 6.00 Build 0)  -->
<!DOCTYPE svg PUBLIC "-//W3C//DTD SVG 1.1//EN" "http://www.w3.org/Graphics/SVG/1.1/DTD/svg11.dtd">
<svg version="1.1" id="Layer_1" xmlns="http://www.w3.org/2000/svg" xmlns:xlink="http://www.w3.org/1999/xlink" x="0px" y="0px"
	 width="595.28px" height="595.28px" viewBox="0 0 595.28 595.28" enable-background="new 0 0 595.28 595.28" xml:space="preserve">
<g>
	<path fill="#0B723B" d="M579.157,515.532c0,33.336-27.1,60.371-60.538,60.371H76.378c-33.433,0-60.545-27.035-60.545-60.371V74.547
		c0-33.336,27.112-60.371,60.545-60.371h442.241c33.438,0,60.538,27.035,60.538,60.371V515.532z"/>
	<path fill="#FFFFFF" d="M382.774,560.246c-0.147-10.25,0.49-16.229,0.49-60.757s-6.392-60.977-28.672-74.101
		c68.76-6.611,111.315-22.519,132.068-65.12l1.889-4.091c1.61-3.705,3.079-7.577,3.079-7.577l2.584-8.234
		c4.658-16.088,7.171-35.107,7.667-57.639c-0.116-61.099-31.396-82.715-37.396-92.863c8.854-46.248-1.488-67.31-6.281-74.526
		c-17.719-5.896-61.653,15.147-85.647,29.999c-39.128-10.702-121.805-9.671-152.821,2.764
		c-57.223-38.317-87.489-32.447-87.489-32.447s-19.571,32.795-5.17,80.763c-18.83,22.441-32.859,38.316-32.859,80.415
		c0,23.697,2.99,44.927,9.713,63.45l1.598,4.162l5.406,11.598l2.3,4.085c21.503,36.506,62.967,59.211,132.899,65.493
		c-9.98,7.081-21.977,20.534-23.626,36.094c-12.557,7.583-37.788,10.077-57.407,4.291c-27.499-8.111-38.023-59.012-79.191-51.77
		c-8.914,1.565-7.152,7.062,0.561,11.732c12.544,7.603,24.361,17.094,33.475,37.324c7,15.541,21.709,43.291,68.218,43.291
		c18.459,0,31.394-2.081,31.394-2.081s0.351,39.644,0.351,55.049c0,6.462-3.398,11.217-7.712,15.09
		c28.494,8.858,58.905,13.717,90.547,13.717c30.745,0,60.338-4.562,88.133-12.95C386.435,571.315,382.865,566.367,382.774,560.246z"
		/>
</g>
</svg>
