<?xml version="1.0" encoding="utf-8"?>
<!-- Generator: Adobe Illustrator 16.0.0, SVG Export Plug-In . SVG Version: 6.00 Build 0)  -->
<!DOCTYPE svg PUBLIC "-//W3C//DTD SVG 1.1//EN" "http://www.w3.org/Graphics/SVG/1.1/DTD/svg11.dtd">
<svg version="1.1" id="Layer_1" xmlns="http://www.w3.org/2000/svg" xmlns:xlink="http://www.w3.org/1999/xlink" x="0px" y="0px"
	 width="595.28px" height="595.28px" viewBox="0 0 595.28 595.28" enable-background="new 0 0 595.28 595.28" xml:space="preserve">
<path fill="#0B723B" d="M580.528,518.712c0,33.434-27.185,60.541-60.715,60.541H76.285c-33.53,0-60.721-27.107-60.721-60.541V76.44
	c0-33.433,27.191-60.543,60.721-60.543h443.529c33.53,0,60.715,27.11,60.715,60.543V518.712z"/>
<g>
	<polygon fill="#FFFFFF" points="297.813,315.393 483.827,171.021 108.396,171.021 286.218,306.42 	"/>
	<polygon fill="#FFFFFF" points="357.196,293.891 489.928,405.844 490.419,189.686 366.173,286.157 	"/>
	<polygon fill="#FFFFFF" points="230.698,301.613 105.676,405.844 105.676,189.686 241.034,293.891 	"/>
	<polygon fill="#FFFFFF" points="252.9,306.42 109.54,424.132 486.076,424.132 343.892,306.42 297.813,340.49 	"/>
</g>
</svg>
