<?xml version="1.0" encoding="utf-8"?>
<!-- Generator: Adobe Illustrator 16.0.0, SVG Export Plug-In . SVG Version: 6.00 Build 0)  -->
<!DOCTYPE svg PUBLIC "-//W3C//DTD SVG 1.1//EN" "http://www.w3.org/Graphics/SVG/1.1/DTD/svg11.dtd">
<svg version="1.1" id="Layer_1" xmlns="http://www.w3.org/2000/svg" xmlns:xlink="http://www.w3.org/1999/xlink" x="0px" y="0px"
	 width="595.28px" height="595.28px" viewBox="0 0 595.28 595.28" enable-background="new 0 0 595.28 595.28" xml:space="preserve">
<path fill="#0B723B" d="M575.217,514.935c0,32.853-26.718,59.489-59.659,59.489H79.729c-32.948,0-59.666-26.637-59.666-59.489
	V80.349c0-32.853,26.718-59.492,59.666-59.492h435.828c32.941,0,59.659,26.639,59.659,59.492V514.935z"/>
<g>
	<path fill="#FFFFFF" d="M215.243,478.127c167.61,0,259.271-138.862,259.271-259.275c0-3.945-0.076-7.876-0.261-11.781
		c17.785-12.854,33.265-28.908,45.463-47.176c-16.331,7.248-33.899,12.14-52.34,14.337c18.821-11.273,33.26-29.125,40.079-50.402
		c-17.614,10.438-37.107,18.029-57.87,22.115c-16.622-17.711-40.306-28.791-66.511-28.791c-50.325,0-91.141,40.814-91.141,91.124
		c0,7.149,0.805,14.103,2.369,20.772c-75.733-3.806-142.889-40.065-187.827-95.201c-7.832,13.464-12.347,29.109-12.347,45.792
		c0,31.621,16.096,59.523,40.557,75.857c-14.95-0.463-28.991-4.565-41.278-11.397c-0.016,0.371-0.016,0.759-0.016,1.159
		c0,44.135,31.414,80.975,73.108,89.337c-7.657,2.083-15.706,3.202-24.023,3.202c-5.873,0-11.581-0.58-17.131-1.641
		c11.601,36.204,45.24,62.549,85.127,63.292c-31.188,24.438-70.485,39.004-113.176,39.004c-7.35,0-14.601-0.419-21.734-1.256
		C115.893,463.041,163.777,478.127,215.243,478.127"/>
</g>
</svg>
