<?xml version="1.0" standalone="no"?>
<!DOCTYPE svg PUBLIC "-//W3C//DTD SVG 20010904//EN"
 "http://www.w3.org/TR/2001/REC-SVG-20010904/DTD/svg10.dtd">
<svg version="1.0" xmlns="http://www.w3.org/2000/svg"
 width="700.000000pt" height="700.000000pt" viewBox="0 0 700.000000 700.000000"
 preserveAspectRatio="xMidYMid meet">
<metadata>
Created by potrace 1.11, written by Peter Selinger 2001-2013
</metadata>
<g transform="translate(0.000000,700.000000) scale(0.100000,-0.100000)"
fill="#000000" stroke="none">
<path d="M725 6790 c-145 -38 -241 -96 -347 -208 -80 -85 -151 -220 -173 -329
-13 -64 -15 -416 -13 -2780 l3 -2708 29 -84 c49 -140 155 -281 272 -361 55
-39 149 -82 229 -106 57 -18 185 -19 2725 -22 1884 -2 2690 0 2749 8 323 42
575 288 621 606 13 94 13 5303 0 5397 -41 282 -252 517 -526 587 -76 20 -123
20 -2788 19 -2607 0 -2714 -1 -2781 -19z m624 -935 c35 -9 86 -28 113 -42 64
-35 149 -127 182 -198 l27 -55 1837 0 1838 0 30 61 c79 167 274 270 452 241
291 -48 454 -359 326 -620 -39 -80 -128 -166 -211 -204 -126 -57 -286 -48
-398 23 l-46 29 -1089 -763 c-599 -419 -1088 -765 -1087 -769 1 -4 488 -377
1081 -828 l1079 -820 25 16 c99 65 184 89 287 81 368 -28 537 -469 281 -731
-288 -295 -776 -65 -743 349 l6 70 -975 740 c-537 407 -1042 791 -1124 853
l-149 113 -732 -513 -731 -513 -2 -75 c-3 -134 -59 -239 -166 -312 -186 -127
-441 -60 -545 142 -114 223 18 488 269 540 81 17 152 5 237 -37 l71 -35 26 19
c15 11 322 226 682 478 360 252 659 461 663 465 5 4 -85 79 -200 166 l-208
158 -95 1 c-104 0 -130 9 -196 68 -84 73 -110 212 -58 315 84 169 308 203 434
66 54 -59 73 -105 74 -182 l1 -63 238 -180 c134 -101 244 -178 252 -175 11 4
1526 1063 2064 1443 l175 123 -1841 0 -1841 0 -6 -24 c-12 -47 -88 -146 -148
-191 -239 -180 -589 -61 -673 229 -13 43 -16 83 -13 147 4 76 9 97 41 162 59
119 162 202 292 233 68 17 119 16 194 -1z"/>
</g>
</svg>
